<svg xmlns="http://www.w3.org/2000/svg" xmlns:xlink="http://www.w3.org/1999/xlink" version="1.1" x="0px" y="0px" viewBox="0 0 66 82.5" enable-background="new 0 0 66 66" xml:space="preserve"><g><path d="M33,1C15.4,1,1,15.4,1,33s14.4,32,32,32s32-14.4,32-32S50.6,1,33,1z M34,63v-6.3c0-0.5-0.4-1-1-1s-1,0.4-1,1V63   C16.2,62.5,3.5,49.8,3,34h6.3c0.5,0,1-0.4,1-1c0-0.5-0.4-1-1-1H3C3.5,16.2,16.2,3.5,32,3v6.3c0,0.5,0.4,1,1,1s1-0.4,1-1V3   C49.8,3.5,62.5,16.2,63,32h-6.3c-0.5,0-1,0.4-1,1c0,0.5,0.4,1,1,1H63C62.5,49.8,49.8,62.5,34,63z"/><path d="M48.2,35.6h-2.5v-0.8c2.6-2.1,4.2-6.2,4.2-9.1c0-4.4-3.5-7.9-7.9-7.9c-0.6,0-1.2,0.1-1.7,0.2c-1.7-2.1-4.4-3.5-7.3-3.5   c-2.9,0-5.6,1.3-7.3,3.5c-5-1.2-9.6,2.7-9.6,7.7c0,2.9,1.7,6.9,4.2,9.1v0.8h-2.5c-2.9,0-5.2,2.3-5.2,5.2v5.3c0,0.5,0.4,1,1,1h5.7   v3.4c0,0.5,0.4,1,1,1h25.6c0.5,0,1-0.4,1-1v-3.4h5.7c0.5,0,1-0.4,1-1v-5.3C53.4,37.9,51.1,35.6,48.2,35.6z M42.1,19.7   c3.3,0,5.9,2.7,5.9,6c0,2.5-1.5,6-3.6,7.7c-0.4,0.1-2.3,2.3-5.1-0.3c2-2.7,3.2-6.2,3.2-8.9v0c0,0,0,0,0,0c0-1.6-0.4-3-1-4.3   C41.7,19.7,41.9,19.7,42.1,19.7z M35.3,39.4L33,41.7l-2.3-2.3v-3c1.6,0.7,3,0.7,4.7,0V39.4z M35.6,34.1c-1.7,1.2-3.4,1.2-5.1,0   c-0.1-0.1-4.7-2.8-5-9.6l2.5-2.2c1.6,1.6,2,2.8,3,2.4c1-0.3,0.6-1.4,1.1-4.2c4.7,3.2,7.2,4.3,8.6,4.5C39.8,31.2,35.6,34,35.6,34.1z    M33,16.5c3.9,0,7.1,2.9,7.5,6.7c-1.6-0.5-5.6-2.8-8.8-5.1c-0.3-0.2-0.6-0.2-1-0.1c-0.3,0.1-0.5,0.4-0.6,0.8l-0.3,2.9l-1.1-1.3   c-1-1.1-2.1,0.7-3,1.3C26.8,18.6,29.7,16.5,33,16.5z M18,25.7c0-3.4,2.9-6.3,6.5-5.9c-0.6,1.3-1,2.7-1,4.2c0,0,0,0,0,0   c0,0,0,0,0,0.1c0,2.7,1.2,6.3,3.2,8.9c-1.4,1.3-3,1.7-4.7,0.6C21.9,33.5,18,30.3,18,25.7z M14.5,45.2v-4.4c0-1.8,1.5-3.3,3.3-3.3   h3.4c1.2,0,0.9-1.5,1-1.6c2.1,0.8,4,0.1,5.7-1.4c0.3,0.3,0.5,0.5,0.8,0.7v3.6h-3.3c-3.4,0-6.2,2.8-6.2,6.2v0.1H14.5z M41.2,49.5   v-4.8c0-0.5-0.4-1-1-1s-1,0.4-1,1v4.8H26.8v-4.8c0-0.5-0.4-1-1-1s-1,0.4-1,1v4.8h-3.7v-3.4c0,0,0,0,0,0s0,0,0,0V45   c0-2.4,1.9-4.3,4.3-4.3h3.9l3,3c0.2,0.2,0.4,0.3,0.7,0.3s0.5-0.1,0.7-0.3l3-3h3.9c2.4,0,4.3,1.9,4.3,4.3v1.1c0,0,0,0,0,0s0,0,0,0   v3.4H41.2z M51.5,45.2h-4.7V45c0-3.4-2.8-6.2-6.2-6.2h-3.3v-3.6c0.3-0.2,0.5-0.5,0.8-0.7c1.6,1.5,3.6,2.2,5.7,1.4v0.6c0,0,0,0,0,0   c0,0.5,0.4,1,1,1h3.4c1.8,0,3.3,1.5,3.3,3.3V45.2z"/></g><text x="0" y="81" fill="#000000" font-size="5px" font-weight="bold" font-family="'Helvetica Neue', Helvetica, Arial-Unicode, Arial, Sans-serif"></text><text x="0" y="86" fill="#000000" font-size="5px" font-weight="bold" font-family="'Helvetica Neue', Helvetica, Arial-Unicode, Arial, Sans-serif"></text></svg>