<svg xmlns="http://www.w3.org/2000/svg" xmlns:xlink="http://www.w3.org/1999/xlink" version="1.1" x="0px" y="0px" viewBox="85 81.383 30 46.542500000000004" enable-background="new 85 81.383 30 37.234" xml:space="preserve"><path d="M114.377,88.871c-3.784,0-6.863-3.08-6.863-6.866v-0.622H92.489v0.622c0,3.786-3.081,6.866-6.867,6.866H85v8.876  c0,9.368,5.946,17.728,14.796,20.799l0.204,0.071l0.204-0.071c8.851-3.071,14.796-11.43,14.796-20.799v-8.876H114.377z   M113.755,97.747c0,8.767-5.519,16.596-13.755,19.551c-8.237-2.955-13.756-10.784-13.756-19.551v-7.655  c3.978-0.303,7.162-3.487,7.466-7.464h12.583c0.303,3.977,3.486,7.161,7.462,7.464V97.747z"/><path d="M105.318,84.339l-0.119-0.467H94.804l-0.121,0.467c-0.85,3.299-3.428,5.876-6.728,6.727l-0.467,0.121v6.561  c0,8.035,4.821,15.152,12.281,18.133l0.23,0.094l0.231-0.094c7.459-2.979,12.279-10.097,12.279-18.133v-6.561l-0.467-0.121  C108.746,90.215,106.169,87.638,105.318,84.339z M111.266,97.747c0,7.44-4.412,14.04-11.266,16.883  c-6.853-2.843-11.267-9.442-11.267-16.883v-5.608c3.359-1.031,5.992-3.664,7.023-7.022h8.49c1.029,3.358,3.662,5.991,7.02,7.022  V97.747z"/><polygon points="99.236,100.125 97.332,98.22 96.452,99.1 99.236,101.885 103.548,97.573 102.668,96.693 "/><path d="M100,92.639c-3.545,0-6.43,2.885-6.43,6.43c0,3.544,2.885,6.43,6.43,6.43s6.43-2.886,6.43-6.43  C106.43,95.524,103.545,92.639,100,92.639z M100,104.255c-2.859,0-5.186-2.327-5.186-5.186s2.327-5.186,5.186-5.186  c2.859,0,5.186,2.326,5.186,5.186C105.186,101.928,102.859,104.255,100,104.255z"/><text x="85" y="133.617" fill="#000000" font-size="5px" font-weight="bold" font-family="'Helvetica Neue', Helvetica, Arial-Unicode, Arial, Sans-serif">Created by Maxim Basinski</text><text x="85" y="138.617" fill="#000000" font-size="5px" font-weight="bold" font-family="'Helvetica Neue', Helvetica, Arial-Unicode, Arial, Sans-serif">from the Noun Project</text></svg>