<svg xmlns="http://www.w3.org/2000/svg" xmlns:xlink="http://www.w3.org/1999/xlink" version="1.1" x="0px" y="0px" viewBox="0 0 512 640" enable-background="new 0 0 512 512" xml:space="preserve"><g><path d="M509.6,386.5V2H2.4v384.5h237.8c2.9,4.5,6.2,8.8,9.7,12.8l-40.3,69.8l45.6,2.7l25.2,38.2l43.1-74.7   c8.3,1,20.1-0.4,26.9-1.8l44.2,76.5l25.2-38.2l45.7-2.7l-47-81.5c0.2-0.4,0.4-0.8,0.7-1.1H509.6z M18.8,370.1V18.4h474.5v351.8   h-65.5c3.2-7.8,5.5-16,6.8-24.5h34.1V42.9H43.3v302.7h181.4c1.3,8.5,3.6,16.8,6.8,24.5H18.8z M223.3,329.2H59.7v-270h392.7v270H436   c0-58.6-47.7-106.3-106.3-106.3S223.3,270.6,223.3,329.2z M279.5,478.9L264.4,456l-27.4-1.6l24.9-43.2   c12.6,10.4,27.7,17.9,44.2,21.7L279.5,478.9z M239.6,329.2c0-49.6,40.4-90,90-90s90,40.4,90,90s-40.4,90-90,90   S239.6,378.8,239.6,329.2z M438.1,454.3l-27.4,1.6l-15.1,22.9l-28.9-50.1c15.7-5.9,29.7-15.3,40.9-27.4L438.1,454.3z"/><path d="M329.6,263.8c-36.1,0-65.4,29.4-65.4,65.4s29.4,65.4,65.4,65.4s65.4-29.4,65.4-65.4S365.7,263.8,329.6,263.8z M329.6,378.3   c-27.1,0-49.1-22-49.1-49.1c0-27.1,22-49.1,49.1-49.1c27.1,0,49.1,22,49.1,49.1C378.7,356.3,356.7,378.3,329.6,378.3z"/><rect x="92.4" y="165.6" width="327.2" height="16.4"/><rect x="92.4" y="100.2" width="327.2" height="16.4"/><rect x="92.4" y="231.1" width="147.3" height="16.4"/><rect x="92.4" y="280.1" width="16.4" height="16.4"/><rect x="125.1" y="280.1" width="16.4" height="16.4"/><rect x="157.8" y="280.1" width="16.4" height="16.4"/></g><text x="0" y="527" fill="#000000" font-size="5px" font-weight="bold" font-family="'Helvetica Neue', Helvetica, Arial-Unicode, Arial, Sans-serif"></text><text x="0" y="532" fill="#000000" font-size="5px" font-weight="bold" font-family="'Helvetica Neue', Helvetica, Arial-Unicode, Arial, Sans-serif"></text></svg>