<svg xmlns="http://www.w3.org/2000/svg" data-name="Layer 3" viewBox="0 0 64 80" x="0px" y="0px"><title>award-business and finance-champion-best-workers-winner-cup</title><path d="M59,35.816A2.966,2.966,0,0,0,60,36a3,3,0,0,0,3-3V28a5.006,5.006,0,0,0-5-5H56.46a6,6,0,1,0-8.92,0H46a5.006,5.006,0,0,0-5,5v5a3,3,0,0,0,3,3,2.966,2.966,0,0,0,1-.184V50a2.966,2.966,0,0,0,.184,1H41V42a1,1,0,0,0-1-1H38.816A2.966,2.966,0,0,0,39,40V23.816A2.966,2.966,0,0,0,40,24a3,3,0,0,0,3-3V16a5.006,5.006,0,0,0-5-5H36.46a6,6,0,1,0-8.92,0H26a5.006,5.006,0,0,0-5,5v5a3,3,0,0,0,3,3,2.966,2.966,0,0,0,1-.184V40a2.966,2.966,0,0,0,.184,1H24a1,1,0,0,0-1,1v9H18.816A2.966,2.966,0,0,0,19,50V35.816A2.966,2.966,0,0,0,20,36a3,3,0,0,0,3-3V28a5.006,5.006,0,0,0-5-5H16.46a6,6,0,1,0-8.92,0H6a5.006,5.006,0,0,0-5,5v5a3,3,0,0,0,3,3,2.966,2.966,0,0,0,1-.184V50a2.966,2.966,0,0,0,.184,1H2a1,1,0,0,0-1,1V62a1,1,0,0,0,1,1H62a1,1,0,0,0,1-1V52a1,1,0,0,0-1-1H58.816A2.966,2.966,0,0,0,59,50ZM48,19a4,4,0,1,1,4,4A4,4,0,0,1,48,19ZM28,7a4,4,0,1,1,4,4A4,4,0,0,1,28,7ZM27,40V15H25v6a1,1,0,0,1-2,0V16a3,3,0,0,1,3-3H38a3,3,0,0,1,3,3v5a1,1,0,0,1-2,0V15H37V40a1,1,0,0,1-2,0V29a3,3,0,0,0-6,0V40a1,1,0,0,1-2,0Zm6.184,1H30.816A2.966,2.966,0,0,0,31,40V29a1,1,0,0,1,2,0V40A2.966,2.966,0,0,0,33.184,41ZM39,43v2H25V43ZM8,19a4,4,0,1,1,4,4A4,4,0,0,1,8,19ZM7,50V27H5v6a1,1,0,0,1-2,0V28a3,3,0,0,1,3-3H18a3,3,0,0,1,3,3v5a1,1,0,0,1-2,0V27H17V50a1,1,0,0,1-2,0V41a3,3,0,0,0-6,0v9a1,1,0,0,1-2,0Zm6.184,1H10.816A2.966,2.966,0,0,0,11,50V41a1,1,0,0,1,2,0v9A2.966,2.966,0,0,0,13.184,51ZM61,61H3V53H24a1,1,0,0,0,1-1V47H39v5a1,1,0,0,0,1,1H61ZM53.184,51H50.816A2.966,2.966,0,0,0,51,50V41a1,1,0,0,1,2,0v9A2.966,2.966,0,0,0,53.184,51ZM55,50V41a3,3,0,0,0-6,0v9a1,1,0,0,1-2,0V27H45v6a1,1,0,0,1-2,0V28a3,3,0,0,1,3-3H58a3,3,0,0,1,3,3v5a1,1,0,0,1-2,0V27H57V50a1,1,0,0,1-2,0Z"/><text x="0" y="79" fill="#000000" font-size="5px" font-weight="bold" font-family="'Helvetica Neue', Helvetica, Arial-Unicode, Arial, Sans-serif"></text><text x="0" y="84" fill="#000000" font-size="5px" font-weight="bold" font-family="'Helvetica Neue', Helvetica, Arial-Unicode, Arial, Sans-serif"></text></svg>