<svg enable-background="new 0 0 68 68" viewBox="0 0 68 85" xmlns="http://www.w3.org/2000/svg"><path d="m54.6 65h-4.2v-30.2c0-.6-.4-1-1-1h-5.3c-.6 0-1 .4-1 1v30.2h-3.7v-20.4c0-.6-.4-1-1-1h-5.4c-.6 0-1 .4-1 1v20.4h-3.7v-25.1c0-.6-.4-1-1-1h-5.3c-.6 0-1 .4-1 1v25.1h-3.9v-16.9c0-.6-.4-1-1-1h-5.3c-.6 0-1 .4-1 1v16.9h-6.8v-53.4c0-.6-.4-1-1-1s-1 .4-1 1v54.4c0 .6.4 1 1 1h52.6c.6 0 1-.4 1-1s-.5-1-1-1zm-42.8 0v-15.9h3.3v15.9zm11.2 0v-24.1h3.3v24.1zm11 0v-19.4h3.3v19.4zm11.1 0v-29.2h3.3v29.2z" fill="#010101"/><path d="m66.4 41.4-5.9-10.9c-.3-.5-.9-.7-1.3-.4l-2.4 1.3-1.7-3.1c6.7-4.1 9.1-12.6 5.2-19.4-4-7.1-12.8-9.9-20.1-6.1-7.2 3.8-10 12.7-6.1 19.9.7 1.4 1.7 2.6 2.8 3.7l-1.6 2c-1.9-.9-3.9-.4-5.2 1l-4-2.1c.1-.4.2-.7.2-1.1 0-2.4-1.9-4.3-4.3-4.3s-4.3 1.9-4.3 4.3c0 1 .4 2 1 2.7l-4.1 5.4c-.5-.2-1.1-.4-1.8-.4-2.4 0-4.3 1.9-4.3 4.3s1.9 4.3 4.3 4.3 4.3-1.9 4.3-4.3c0-1-.4-2-1-2.7l4.1-5.4c1.8.8 3.8.3 5-1.1l4 2.1c-.1.3-.2.7-.2 1.1 0 2.4 1.9 4.3 4.3 4.3s4.3-1.9 4.3-4.3c0-1-.3-1.9-.9-2.6l1.6-2c4.1 3 9.6 3.9 14.8 1.5l1.7 3.1-2.4 1.3c-.2.1-.4.3-.5.6s0 .5.1.8l5.9 10.9c1.2 2.3 4.1 3.1 6.4 1.9 2.5-1.1 3.4-4 2.1-6.3zm-53.6-.9c-1.3 0-2.3-1-2.3-2.3s1-2.3 2.3-2.3 2.3 1.1 2.3 2.3c0 1.3-1 2.3-2.3 2.3zm9.2-12.1c-1.3 0-2.3-1-2.3-2.3s1-2.3 2.3-2.3 2.3 1.1 2.3 2.3c0 1.3-1 2.3-2.3 2.3zm11.4 6.1c-1.3 0-2.3-1.1-2.3-2.3s1-2.3 2.3-2.3 2.3 1 2.3 2.3-1 2.3-2.3 2.3zm6.4-8.4 8.2-9.8.1 4.3c0 .5.5 1 1 1 .6 0 1-.5 1-1l-.2-6.9c0-.6-.7-1.1-1.2-1l-7.1 1.6c-.5.1-.9.6-.8 1.2.1.5.6.9 1.2.8l4.3-.9-8 9.6c-.9-.9-1.7-1.9-2.3-3.1-3.3-6.2-1-13.9 5.3-17.2s14-.9 17.4 5.3c3.5 6.2 1.1 13.9-5.3 17.2-4.4 2-9.6 1.7-13.6-1.1zm23.8 19.9c-1.3.7-3 .1-3.7-1.1l-5.4-10 4.8-2.5 5.4 10c.7 1.3.2 2.9-1.1 3.6z" fill="#010101"/><text y="83"/><text y="88"/></svg>