<?xml version="1.0" encoding="utf-8"?>
<!-- Generator: Adobe Illustrator 23.0.3, SVG Export Plug-In . SVG Version: 6.00 Build 0)  -->
<svg version="1.1" id="Слой_1" xmlns="http://www.w3.org/2000/svg" xmlns:xlink="http://www.w3.org/1999/xlink" x="0px" y="0px"
	 viewBox="0 0 170 89" style="enable-background:new 0 0 170 89;" xml:space="preserve">
<style type="text/css">
	.st0{fill:none;}
	.st1{fill:none;stroke:#000000;stroke-width:2;stroke-linecap:round;stroke-linejoin:round;}
</style>
<path class="st0" d="M-140-1429"/>
<path class="st1" d="M130,77c0,0-14-14-18-14S95,81,95,81s16.9,4,34.2,4c18.2,0,36.8-4,36.8-4s-17.7-26.5-23-26s-15,10-15,10"/>
<path class="st1" d="M24,67h46c5,0,9,4,9,9c0,5-4,9-9,9H24c-5,0-9-4-9-9C15,71,19,67,24,67z"/>
<path class="st1" d="M70,81c-2.8,0-5-2.2-5-5c0-2.8,2.2-5,5-5s5,2.2,5,5C75,78.8,72.8,81,70,81z M55,81c-2.8,0-5-2.2-5-5
	c0-2.8,2.2-5,5-5s5,2.2,5,5C60,78.8,57.8,81,55,81z M39,81c-2.8,0-5-2.2-5-5c0-2.8,2.2-5,5-5s5,2.2,5,5C44,78.8,41.8,81,39,81z
	 M24,81c-2.8,0-5-2.2-5-5c0-2.8,2.2-5,5-5s5,2.2,5,5C29,78.8,26.8,81,24,81z"/>
<path class="st1" d="M10.7,70c2.3-4.2,6.7-7,11.8-7h49c5.3,0,9.8,3,12,7.4"/>
<path class="st1" d="M32,39c2.2,0,3-3,3-3v-4c0,0,0.9-3,3-3s17,0,17,0s7,5.6,7,16c0,10.4-6,16-6,16s-17.6,0-20,0s-1.7-2-3-2
	s-23,0-23,0s-4.6-0.8-4-4s4-16,8-16S29.8,39,32,39z"/>
<path class="st1" d="M17,45h13"/>
<path class="st1" d="M15,50h15"/>
<path class="st1" d="M46,34c0,1.8,0,7.1,0,9c0,1.9,2,2,2,2s6.6,1,9,1c2.4,0,0-6,0-6s-1.7-6.9-4-7S46,32.2,46,34z"/>
<path class="st1" d="M104.7,39.5l-6.6-22.7c1-0.2,1.9-0.8,2.6-1.5l5.4,23.7C105.6,39.1,105.1,39.3,104.7,39.5z M60,37l-3-6l35-19.2
	c0,0.1,0,0.1,0,0.2c0,1.3,0.5,2.5,1.3,3.4L60,37z M104,46h2l-2,12c0,0-0.3,3-6,3c-5.6,0-12-11-12-11l6,2L104,46z"/>
<path class="st1" d="M106.5,46c-1.9,0-3.5-1.6-3.5-3.5s1.6-3.5,3.5-3.5s3.5,1.6,3.5,3.5S108.4,46,106.5,46z M97,17c-2.8,0-5-2.2-5-5
	c0-2.8,2.2-5,5-5s5,2.2,5,5C102,14.8,99.8,17,97,17z"/>
<path class="st1" d="M97,11c0.6,0,1,0.4,1,1s-0.4,1-1,1s-1-0.4-1-1S96.4,11,97,11z"/>
</svg>
