<?xml version="1.0" encoding="utf-8"?><svg xmlns="http://www.w3.org/2000/svg" xmlns:xlink="http://www.w3.org/1999/xlink"><symbol viewBox="0 0 512 512" id="arrow-map" xmlns="http://www.w3.org/2000/svg"><path d="M508.875 248.458l-160-160c-4.167-4.167-10.917-4.167-15.083 0-4.167 4.167-4.167 10.917 0 15.083l141.792 141.792H10.667C4.771 245.333 0 250.104 0 256s4.771 10.667 10.667 10.667h464.917L333.792 408.458c-4.167 4.167-4.167 10.917 0 15.083a10.634 10.634 0 007.542 3.125c2.729 0 5.458-1.042 7.542-3.125l160-160c4.166-4.166 4.166-10.916-.001-15.083z"/></symbol><symbol viewBox="0 0 68 85" id="bauinvest.org-competition" xmlns="http://www.w3.org/2000/svg"><path d="M54.6 65h-4.2V34.8c0-.6-.4-1-1-1h-5.3c-.6 0-1 .4-1 1V65h-3.7V44.6c0-.6-.4-1-1-1H33c-.6 0-1 .4-1 1V65h-3.7V39.9c0-.6-.4-1-1-1H22c-.6 0-1 .4-1 1V65h-3.9V48.1c0-.6-.4-1-1-1h-5.3c-.6 0-1 .4-1 1V65H3V11.6c0-.6-.4-1-1-1s-1 .4-1 1V66c0 .6.4 1 1 1h52.6c.6 0 1-.4 1-1s-.5-1-1-1zm-42.8 0V49.1h3.3V65zM23 65V40.9h3.3V65zm11 0V45.6h3.3V65zm11.1 0V35.8h3.3V65z"/><path d="M66.4 41.4l-5.9-10.9c-.3-.5-.9-.7-1.3-.4l-2.4 1.3-1.7-3.1c6.7-4.1 9.1-12.6 5.2-19.4-4-7.1-12.8-9.9-20.1-6.1-7.2 3.8-10 12.7-6.1 19.9.7 1.4 1.7 2.6 2.8 3.7l-1.6 2c-1.9-.9-3.9-.4-5.2 1l-4-2.1c.1-.4.2-.7.2-1.1 0-2.4-1.9-4.3-4.3-4.3s-4.3 1.9-4.3 4.3c0 1 .4 2 1 2.7l-4.1 5.4c-.5-.2-1.1-.4-1.8-.4-2.4 0-4.3 1.9-4.3 4.3s1.9 4.3 4.3 4.3 4.3-1.9 4.3-4.3c0-1-.4-2-1-2.7l4.1-5.4c1.8.8 3.8.3 5-1.1l4 2.1c-.1.3-.2.7-.2 1.1 0 2.4 1.9 4.3 4.3 4.3s4.3-1.9 4.3-4.3c0-1-.3-1.9-.9-2.6l1.6-2c4.1 3 9.6 3.9 14.8 1.5l1.7 3.1-2.4 1.3c-.2.1-.4.3-.5.6s0 .5.1.8l5.9 10.9c1.2 2.3 4.1 3.1 6.4 1.9 2.5-1.1 3.4-4 2.1-6.3zm-53.6-.9c-1.3 0-2.3-1-2.3-2.3s1-2.3 2.3-2.3 2.3 1.1 2.3 2.3c0 1.3-1 2.3-2.3 2.3zM22 28.4c-1.3 0-2.3-1-2.3-2.3s1-2.3 2.3-2.3 2.3 1.1 2.3 2.3c0 1.3-1 2.3-2.3 2.3zm11.4 6.1c-1.3 0-2.3-1.1-2.3-2.3s1-2.3 2.3-2.3 2.3 1 2.3 2.3-1 2.3-2.3 2.3zm6.4-8.4l8.2-9.8.1 4.3c0 .5.5 1 1 1 .6 0 1-.5 1-1l-.2-6.9c0-.6-.7-1.1-1.2-1l-7.1 1.6c-.5.1-.9.6-.8 1.2.1.5.6.9 1.2.8l4.3-.9-8 9.6c-.9-.9-1.7-1.9-2.3-3.1-3.3-6.2-1-13.9 5.3-17.2s14-.9 17.4 5.3c3.5 6.2 1.1 13.9-5.3 17.2-4.4 2-9.6 1.7-13.6-1.1zM63.6 46c-1.3.7-3 .1-3.7-1.1l-5.4-10 4.8-2.5 5.4 10c.7 1.3.2 2.9-1.1 3.6z"/></symbol><symbol viewBox="0 0 64 80" id="bauinvest.org-competitiveness" xmlns="http://www.w3.org/2000/svg"><path d="M59 35.816A2.966 2.966 0 0060 36a3 3 0 003-3v-5a5.006 5.006 0 00-5-5h-1.54a6 6 0 10-8.92 0H46a5.006 5.006 0 00-5 5v5a3 3 0 003 3 2.966 2.966 0 001-.184V50a2.966 2.966 0 00.184 1H41v-9a1 1 0 00-1-1h-1.184A2.966 2.966 0 0039 40V23.816A2.966 2.966 0 0040 24a3 3 0 003-3v-5a5.006 5.006 0 00-5-5h-1.54a6 6 0 10-8.92 0H26a5.006 5.006 0 00-5 5v5a3 3 0 003 3 2.966 2.966 0 001-.184V40a2.966 2.966 0 00.184 1H24a1 1 0 00-1 1v9h-4.184A2.966 2.966 0 0019 50V35.816A2.966 2.966 0 0020 36a3 3 0 003-3v-5a5.006 5.006 0 00-5-5h-1.54a6 6 0 10-8.92 0H6a5.006 5.006 0 00-5 5v5a3 3 0 003 3 2.966 2.966 0 001-.184V50a2.966 2.966 0 00.184 1H2a1 1 0 00-1 1v10a1 1 0 001 1h60a1 1 0 001-1V52a1 1 0 00-1-1h-3.184A2.966 2.966 0 0059 50zM48 19a4 4 0 114 4 4 4 0 01-4-4zM28 7a4 4 0 114 4 4 4 0 01-4-4zm-1 33V15h-2v6a1 1 0 01-2 0v-5a3 3 0 013-3h12a3 3 0 013 3v5a1 1 0 01-2 0v-6h-2v25a1 1 0 01-2 0V29a3 3 0 00-6 0v11a1 1 0 01-2 0zm6.184 1h-2.368A2.966 2.966 0 0031 40V29a1 1 0 012 0v11a2.966 2.966 0 00.184 1zM39 43v2H25v-2zM8 19a4 4 0 114 4 4 4 0 01-4-4zM7 50V27H5v6a1 1 0 01-2 0v-5a3 3 0 013-3h12a3 3 0 013 3v5a1 1 0 01-2 0v-6h-2v23a1 1 0 01-2 0v-9a3 3 0 00-6 0v9a1 1 0 01-2 0zm6.184 1h-2.368A2.966 2.966 0 0011 50v-9a1 1 0 012 0v9a2.966 2.966 0 00.184 1zM61 61H3v-8h21a1 1 0 001-1v-5h14v5a1 1 0 001 1h21zm-7.816-10h-2.368A2.966 2.966 0 0051 50v-9a1 1 0 012 0v9a2.966 2.966 0 00.184 1zM55 50v-9a3 3 0 00-6 0v9a1 1 0 01-2 0V27h-2v6a1 1 0 01-2 0v-5a3 3 0 013-3h12a3 3 0 013 3v5a1 1 0 01-2 0v-6h-2v23a1 1 0 01-2 0z"/></symbol><symbol viewBox="0 0 512 640" id="bauinvest.org-professional" xmlns="http://www.w3.org/2000/svg"><path d="M509.6 386.5V2H2.4v384.5h237.8c2.9 4.5 6.2 8.8 9.7 12.8l-40.3 69.8 45.6 2.7 25.2 38.2 43.1-74.7c8.3 1 20.1-.4 26.9-1.8l44.2 76.5 25.2-38.2 45.7-2.7-47-81.5c.2-.4.4-.8.7-1.1h90.4zM18.8 370.1V18.4h474.5v351.8h-65.5c3.2-7.8 5.5-16 6.8-24.5h34.1V42.9H43.3v302.7h181.4c1.3 8.5 3.6 16.8 6.8 24.5H18.8zm204.5-40.9H59.7v-270h392.7v270H436c0-58.6-47.7-106.3-106.3-106.3s-106.4 47.7-106.4 106.3zm56.2 149.7L264.4 456l-27.4-1.6 24.9-43.2c12.6 10.4 27.7 17.9 44.2 21.7l-26.6 46zm-39.9-149.7c0-49.6 40.4-90 90-90s90 40.4 90 90-40.4 90-90 90-90-40.4-90-90zm198.5 125.1l-27.4 1.6-15.1 22.9-28.9-50.1c15.7-5.9 29.7-15.3 40.9-27.4l30.5 53z"/><path d="M329.6 263.8c-36.1 0-65.4 29.4-65.4 65.4s29.4 65.4 65.4 65.4 65.4-29.4 65.4-65.4-29.3-65.4-65.4-65.4zm0 114.5c-27.1 0-49.1-22-49.1-49.1s22-49.1 49.1-49.1 49.1 22 49.1 49.1-22 49.1-49.1 49.1zM92.4 165.6h327.2V182H92.4zm0-65.4h327.2v16.4H92.4zm0 130.9h147.3v16.4H92.4zm0 49h16.4v16.4H92.4zm32.7 0h16.4v16.4h-16.4zm32.7 0h16.4v16.4h-16.4z"/></symbol><symbol viewBox="85 81.383 30 46.543" id="bauinvest.org-reliability" xmlns="http://www.w3.org/2000/svg"><path d="M114.377 88.871c-3.784 0-6.863-3.08-6.863-6.866v-.622H92.489v.622c0 3.786-3.081 6.866-6.867 6.866H85v8.876a22.031 22.031 0 0014.796 20.799l.204.071.204-.071A22.029 22.029 0 00115 97.747v-8.876h-.623zm-.622 8.876A20.787 20.787 0 01100 117.298a20.786 20.786 0 01-13.756-19.551v-7.655a8.124 8.124 0 007.466-7.464h12.583a8.121 8.121 0 007.462 7.464v7.655z"/><path d="M105.318 84.339l-.119-.467H94.804l-.121.467a9.361 9.361 0 01-6.728 6.727l-.467.121v6.561c0 8.035 4.821 15.152 12.281 18.133l.23.094.231-.094c7.459-2.979 12.279-10.097 12.279-18.133v-6.561l-.467-.121a9.364 9.364 0 01-6.724-6.727zm5.948 13.408c0 7.44-4.412 14.04-11.266 16.883-6.853-2.843-11.267-9.442-11.267-16.883v-5.608a10.605 10.605 0 007.023-7.022h8.49a10.6 10.6 0 007.02 7.022v5.608z"/><path d="M99.236 100.125l-1.904-1.905-.88.88 2.784 2.785 4.312-4.312-.88-.88z"/><path d="M100 92.639a6.438 6.438 0 00-6.43 6.43c0 3.544 2.885 6.43 6.43 6.43s6.43-2.886 6.43-6.43a6.438 6.438 0 00-6.43-6.43zm0 11.616c-2.859 0-5.186-2.327-5.186-5.186s2.327-5.186 5.186-5.186a5.192 5.192 0 015.186 5.186 5.193 5.193 0 01-5.186 5.186z"/><text x="85" y="133.617" font-size="5" font-weight="bold" font-family="'Helvetica Neue', Helvetica, Arial-Unicode, Arial, Sans-serif">Created by Maxim Basinski</text><text x="85" y="138.617" font-size="5" font-weight="bold" font-family="'Helvetica Neue', Helvetica, Arial-Unicode, Arial, Sans-serif">from the Noun Project</text></symbol><symbol viewBox="0 0 66 82.5" id="bauinvest.org-target" xmlns="http://www.w3.org/2000/svg"><path d="M33 1C15.4 1 1 15.4 1 33s14.4 32 32 32 32-14.4 32-32S50.6 1 33 1zm1 62v-6.3c0-.5-.4-1-1-1s-1 .4-1 1V63C16.2 62.5 3.5 49.8 3 34h6.3c.5 0 1-.4 1-1 0-.5-.4-1-1-1H3C3.5 16.2 16.2 3.5 32 3v6.3c0 .5.4 1 1 1s1-.4 1-1V3c15.8.5 28.5 13.2 29 29h-6.3c-.5 0-1 .4-1 1 0 .5.4 1 1 1H63c-.5 15.8-13.2 28.5-29 29z"/><path d="M48.2 35.6h-2.5v-.8c2.6-2.1 4.2-6.2 4.2-9.1 0-4.4-3.5-7.9-7.9-7.9-.6 0-1.2.1-1.7.2-1.7-2.1-4.4-3.5-7.3-3.5-2.9 0-5.6 1.3-7.3 3.5-5-1.2-9.6 2.7-9.6 7.7 0 2.9 1.7 6.9 4.2 9.1v.8h-2.5c-2.9 0-5.2 2.3-5.2 5.2v5.3c0 .5.4 1 1 1h5.7v3.4c0 .5.4 1 1 1h25.6c.5 0 1-.4 1-1v-3.4h5.7c.5 0 1-.4 1-1v-5.3c-.2-2.9-2.5-5.2-5.4-5.2zm-6.1-15.9c3.3 0 5.9 2.7 5.9 6 0 2.5-1.5 6-3.6 7.7-.4.1-2.3 2.3-5.1-.3 2-2.7 3.2-6.2 3.2-8.9 0-1.6-.4-3-1-4.3.2-.2.4-.2.6-.2zm-6.8 19.7L33 41.7l-2.3-2.3v-3c1.6.7 3 .7 4.7 0v3zm.3-5.3c-1.7 1.2-3.4 1.2-5.1 0-.1-.1-4.7-2.8-5-9.6l2.5-2.2c1.6 1.6 2 2.8 3 2.4 1-.3.6-1.4 1.1-4.2 4.7 3.2 7.2 4.3 8.6 4.5-.9 6.2-5.1 9-5.1 9.1zM33 16.5c3.9 0 7.1 2.9 7.5 6.7-1.6-.5-5.6-2.8-8.8-5.1-.3-.2-.6-.2-1-.1-.3.1-.5.4-.6.8l-.3 2.9-1.1-1.3c-1-1.1-2.1.7-3 1.3 1.1-3.1 4-5.2 7.3-5.2zm-15 9.2c0-3.4 2.9-6.3 6.5-5.9-.6 1.3-1 2.7-1 4.2v.1c0 2.7 1.2 6.3 3.2 8.9-1.4 1.3-3 1.7-4.7.6-.1-.1-4-3.3-4-7.9zm-3.5 19.5v-4.4c0-1.8 1.5-3.3 3.3-3.3h3.4c1.2 0 .9-1.5 1-1.6 2.1.8 4 .1 5.7-1.4.3.3.5.5.8.7v3.6h-3.3c-3.4 0-6.2 2.8-6.2 6.2v.1h-4.7zm26.7 4.3v-4.8c0-.5-.4-1-1-1s-1 .4-1 1v4.8H26.8v-4.8c0-.5-.4-1-1-1s-1 .4-1 1v4.8h-3.7V45c0-2.4 1.9-4.3 4.3-4.3h3.9l3 3c.2.2.4.3.7.3s.5-.1.7-.3l3-3h3.9c2.4 0 4.3 1.9 4.3 4.3v4.5h-3.7zm10.3-4.3h-4.7V45c0-3.4-2.8-6.2-6.2-6.2h-3.3v-3.6c.3-.2.5-.5.8-.7 1.6 1.5 3.6 2.2 5.7 1.4v.6c0 .5.4 1 1 1h3.4c1.8 0 3.3 1.5 3.3 3.3v4.4z"/></symbol><symbol viewBox="0 0 2304 1792" id="client" xmlns="http://www.w3.org/2000/svg"><path d="M192 1152q40 0 56-32t0-64-56-32-56 32 0 64 56 32zm1473-58q-10-13-38.5-50t-41.5-54-38-49-42.5-53-40.5-47-45-49l-125 140q-83 94-208.5 92T880 926q-57-69-56.5-158T882 611l177-206q-22-11-51-16.5t-47.5-6-56.5.5-49 1q-92 0-158 66L539 608H384v544q5 0 21-.5t22 0 19.5 2 20.5 4.5 17.5 8.5T503 1180l297 292q115 111 227 111 78 0 125-47 57 20 112.5-8t72.5-85q74 6 127-44 20-18 36-45.5t14-50.5q10 10 43 10 43 0 77-21t49.5-53 12-71.5-30.5-73.5zm159 58h96V640h-93l-157-180q-66-76-169-76h-167q-89 0-146 67L979 694q-28 33-28 75t27 75q43 51 110 52t111-49l193-218q25-23 53.5-21.5t47 27 8.5 56.5q16 19 56 63t60 68q29 36 82.5 105.5t64.5 84.5q52 66 60 140zm288 0q40 0 56-32t0-64-56-32-56 32 0 64 56 32zm192-576v640q0 26-19 45t-45 19h-434q-27 65-82 106.5t-125 51.5q-33 48-80.5 81.5T1416 1565q-42 53-104.5 81.5T1183 1671q-60 34-126 39.5t-127.5-14-117-53.5-103.5-81l-287-282H64q-26 0-45-19t-19-45V544q0-26 19-45t45-19h421q14-14 47-48t47.5-48 44-40 50.5-37.5 51-25.5 62-19.5 68-5.5h117q99 0 181 56 82-56 181-56h167q35 0 67 6t56.5 14.5T1676 303t44.5 31 43 39.5 39 42 41 48T1885 512h355q26 0 45 19t19 45z"/></symbol><symbol viewBox="0 0 512.001 512.001" id="close" xmlns="http://www.w3.org/2000/svg"><path d="M284.286 256.002L506.143 34.144c7.811-7.811 7.811-20.475 0-28.285-7.811-7.81-20.475-7.811-28.285 0L256 227.717 34.143 5.859c-7.811-7.811-20.475-7.811-28.285 0-7.81 7.811-7.811 20.475 0 28.285l221.857 221.857L5.858 477.859c-7.811 7.811-7.811 20.475 0 28.285a19.938 19.938 0 0014.143 5.857 19.94 19.94 0 0014.143-5.857L256 284.287l221.857 221.857c3.905 3.905 9.024 5.857 14.143 5.857s10.237-1.952 14.143-5.857c7.811-7.811 7.811-20.475 0-28.285L284.286 256.002z"/></symbol><symbol viewBox="0 0 2048 1792" id="concurent" xmlns="http://www.w3.org/2000/svg"><path d="M2048 1536v128H0V128h128v1408h1920zM1920 288v435q0 21-19.5 29.5T1865 745l-121-121-633 633q-10 10-23 10t-23-10l-233-233-416 416-192-192 585-585q10-10 23-10t23 10l233 233 464-464-121-121q-16-16-7.5-35.5T1453 256h435q14 0 23 9t9 23z"/></symbol><symbol viewBox="0 0 412.72 412.72" id="docbook" xmlns="http://www.w3.org/2000/svg"><path d="M404.72 82.944h-27.2v-9.28a8 8 0 00-5.76-8 225.345 225.345 0 00-57.68-7.36c-32 0-75.6 7.2-107.84 40-32-33.12-75.92-40-107.84-40a225.345 225.345 0 00-57.68 7.36 8 8 0 00-5.76 8v9.2H8a8 8 0 00-8 8v255.52a8 8 0 008 8 7.996 7.996 0 003.92-1.04c.8-.4 80.8-44.16 192.48-16h1.92a8.008 8.008 0 001.92 0c112-28.4 192 15.28 192.48 16a8 8 0 0012-6.88V90.944a8 8 0 00-8-8zM16 333.664V98.944h19.12v200.64a8 8 0 009.2 8 350.096 350.096 0 0150-4 207.516 207.516 0 0168.32 10.32A294.1 294.1 0 0016 333.664zm78.32-46a351.994 351.994 0 00-43.52 2.8V79.984a220.645 220.645 0 0147.44-5.28c29.92 0 71.2 6.88 99.84 39.2l.24 199.28c-16.64-10.88-49.12-25.52-104-25.52zm120-173.76c28.64-32 69.92-39.2 99.84-39.2a221.61 221.61 0 0147.44 5.28v210.48a351.895 351.895 0 00-43.28-2.88c-54.56 0-87.12 14.64-104 25.52v-199.2zm182.32 219.76a294.158 294.158 0 00-146.96-19.76 208.008 208.008 0 0168.64-10.32 349.994 349.994 0 0150.32 3.92 8 8 0 009.2-8V98.944h19.12l-.32 234.72z"/></symbol><symbol viewBox="0 0 512 512" id="googledocs" xmlns="http://www.w3.org/2000/svg"><path d="M446.605 124.392L326.608 4.395A15.02 15.02 0 00316 0H106C81.187 0 61 20.187 61 45v422c0 24.813 20.187 45 45 45h300c24.813 0 45-20.187 45-45V135c0-4.09-1.717-7.931-4.395-10.608zM331 51.213L399.787 120H346c-8.271 0-15-6.729-15-15zM406 482H106c-8.271 0-15-6.729-15-15V45c0-8.271 6.729-15 15-15h195v75c0 24.813 20.187 45 45 45h75v317c0 8.271-6.729 15-15 15z"/><path d="M346 212H166c-8.284 0-15 6.716-15 15s6.716 15 15 15h180c8.284 0 15-6.716 15-15s-6.716-15-15-15zm0 60H166c-8.284 0-15 6.716-15 15s6.716 15 15 15h180c8.284 0 15-6.716 15-15s-6.716-15-15-15zm0 60H166c-8.284 0-15 6.716-15 15s6.716 15 15 15h180c8.284 0 15-6.716 15-15s-6.716-15-15-15zm-60 60H166c-8.284 0-15 6.716-15 15s6.716 15 15 15h120c8.284 0 15-6.716 15-15s-6.716-15-15-15z"/></symbol><symbol viewBox="0 0 320.001 320.001" id="play-video" xmlns="http://www.w3.org/2000/svg"><path d="M295.84 146.049l-256-144a16.026 16.026 0 00-15.904.128A15.986 15.986 0 0016 16.001v288a15.986 15.986 0 007.936 13.824A16.144 16.144 0 0032 320.001c2.688 0 5.408-.672 7.84-2.048l256-144c5.024-2.848 8.16-8.16 8.16-13.952s-3.136-11.104-8.16-13.952z"/></symbol><symbol viewBox="0 0 2304 1792" id="prof" xmlns="http://www.w3.org/2000/svg"><path d="M1774 836l18 316q4 69-82 128t-235 93.5-323 34.5-323-34.5-235-93.5-82-128l18-316 574 181q22 7 48 7t48-7zm530-324q0 23-22 31L1162 895q-4 1-10 1t-10-1L490 689q-43 34-71 111.5T385 979q63 36 63 109 0 69-58 107l58 433q2 14-8 25-9 11-24 11H224q-15 0-24-11-10-11-8-25l58-433q-58-38-58-107 0-73 65-111 11-207 98-330L22 543q-22-8-22-31t22-31l1120-352q4-1 10-1t10 1l1120 352q22 8 22 31z"/></symbol><symbol viewBox="0 0 1792 1792" id="save" xmlns="http://www.w3.org/2000/svg"><path d="M1344 960V320H896v1137q119-63 213-137 235-184 235-360zm192-768v768q0 86-33.5 170.5t-83 150-118 127.5-126.5 103-121 77.5-89.5 49.5-42.5 20q-12 6-26 6t-26-6q-16-7-42.5-20t-89.5-49.5-121-77.5-126.5-103-118-127.5-83-150T256 960V192q0-26 19-45t45-19h1152q26 0 45 19t19 45z"/></symbol></svg>